<?xml version="1.0" encoding="utf-8"?>
<!-- Generator: Adobe Illustrator 16.0.0, SVG Export Plug-In . SVG Version: 6.00 Build 0)  -->
<!DOCTYPE svg PUBLIC "-//W3C//DTD SVG 1.1//EN" "http://www.w3.org/Graphics/SVG/1.1/DTD/svg11.dtd">
<svg version="1.1" id="Layer_1" xmlns="http://www.w3.org/2000/svg" xmlns:xlink="http://www.w3.org/1999/xlink" x="0px" y="0px"
	 width="130px" height="130px" viewBox="0 0 130 130" enable-background="new 0 0 130 130" xml:space="preserve">
<path fill="#FFFFFF" d="M91.98,16.284V3.586c6.212,1.519,10.77,3.588,15.6,6.216v11.866C102.75,19.461,97.506,17.526,91.98,16.284
	L91.98,16.284z"/>
<path fill="#FFFFFF" d="M82.867,80.201l0.832-25.955c0-1.654,1.24-2.896,2.762-2.896c1.658,0,2.756,1.242,2.756,2.896l0.971,25.955
	H82.867L82.867,80.201z"/>
<path fill="#FFFFFF" d="M113.379,115.404c-8.421,11.041-18.223,14.35-26.918,14.35l0,0c-8.975,0-15.184-2.622-22.366-6.351
	c-6.346-3.307-12.562-5.381-20.707-5.381c-7.59,0-16.703,1.934-26.502,8.007"/>
<path fill="#FFFFFF" d="M16.887,126.029c8.144-12.144,18.912-15.739,28.988-15.739c10.77,0,19.188,3.316,26.782,7.187
	c7.041,3.579,12.559,5.372,20.291,5.372c6.49,0,13.668-1.793,20.432-7.444"/>
<path fill="#FFFFFF" d="M30.966,10.213v30.924l7.038,6.762l-2.069,34.782l-5.661,5.661v20.152l1.935,2.072
	c4.691-2.479,10.626-4.552,17.805-4.552c6.9,0,14.909,1.93,23.883,6.903V87.245l-3.727-4.703V46.929l7.314-11.319l-3.037,10.903
	c2.072-0.269,4.143-0.407,6.352-0.407c7.178,0,13.801,1.238,19.464,3.451l7.315-6.766V24.433c-4.83-2.212-10.074-4.007-15.6-5.385
	l0,0c-3.314-0.833-6.902-1.38-10.49-1.794V1.376C77.625,0.824,73.621,0.55,69.482,0.55c-3.868,0-7.733,0.274-11.46,0.69v15.044
	c-3.589,0.418-7.041,1.107-10.353,1.932"/>
<path fill="#FFFFFF" d="M48.08,80.201l0.832-25.955c0-1.654,1.243-2.896,2.762-2.896c1.521,0,2.76,1.242,2.76,2.896l0.969,25.955
	H48.08L48.08,80.201z"/>
</svg>
